<svg width="22" height="20" viewBox="0 0 22 20" fill="none" xmlns="http://www.w3.org/2000/svg">
<g clip-path="url(#clip0)">
<path d="M21.0101 19.3939L15.5267 13.9105C16.6522 12.4675 17.316 10.6494 17.316 8.65801C17.316 3.8961 13.4199 0 8.65801 0C3.8961 0 0 3.8961 0 8.65801C0 13.4199 3.8961 17.316 8.65801 17.316C11.14 17.316 13.3911 16.2482 14.9784 14.5743L20.404 20L21.0101 19.3939ZM8.65801 16.4502C4.35786 16.4502 0.865801 12.9582 0.865801 8.65801C0.865801 4.35786 4.35786 0.865801 8.65801 0.865801C12.9582 0.865801 16.4502 4.35786 16.4502 8.65801C16.4502 12.9582 12.9582 16.4502 8.65801 16.4502Z" fill="#2C3343"/>
</g>
<defs>
<clipPath id="clip0">
<rect width="21.0101" height="20" fill="white"/>
</clipPath>
</defs>
</svg>
