<svg width="22" height="24" viewBox="0 0 22 24" fill="none" xmlns="http://www.w3.org/2000/svg">
<g clip-path="url(#clip0)">
<path d="M12.6467 13.5377C15.521 12.7042 17.6479 10.0599 17.6479 6.8982C17.6479 3.10419 14.5437 0 10.7497 0C6.95569 0 3.8515 3.10419 3.8515 6.8982C3.8515 10.0599 5.97844 12.7042 8.85269 13.5377C4.02395 14.4 0.287425 18.5102 0 23.5401C0 23.7988 0.172455 24 0.431138 24C0.661078 24 0.862275 23.8275 0.862275 23.5976C1.1497 18.3952 5.48982 14.2275 10.7497 14.2275C16.0096 14.2275 20.3497 18.3665 20.6371 23.5976C20.6371 23.8275 20.8383 24 21.0683 24C21.3269 24 21.4994 23.7988 21.4994 23.5401C21.2407 18.5102 17.5042 14.4 12.6467 13.5377ZM4.71377 6.8982C4.71377 3.56407 7.41557 0.862275 10.7497 0.862275C14.0838 0.862275 16.7856 3.56407 16.7856 6.8982C16.7856 10.2323 14.0838 12.9341 10.7497 12.9341C7.41557 12.9341 4.71377 10.2323 4.71377 6.8982Z" fill="#2C3343"/>
</g>
<defs>
<clipPath id="clip0">
<rect width="21.5281" height="24" fill="white"/>
</clipPath>
</defs>
</svg>
