<svg width="23" height="24" viewBox="0 0 23 24" fill="none" xmlns="http://www.w3.org/2000/svg">
<path d="M21.1459 4.99459C21.1135 4.73513 20.9189 4.54054 20.6595 4.54054H16.4757V0.486486C16.4757 0.227027 16.2486 0 15.9892 0H6.38919C6.12973 0 5.9027 0.227027 5.9027 0.486486V4.54054H1.84865C1.58919 4.54054 1.39459 4.73513 1.36216 4.99459L0 23.4811C0 23.6108 0.0324324 23.7405 0.12973 23.8378C0.227027 23.9351 0.356757 24 0.486486 24H21.9568C22.0865 24 22.2162 23.9351 22.3135 23.8378C22.4108 23.7405 22.4432 23.6108 22.4432 23.4811L21.1459 4.99459ZM6.87568 0.972973H15.5027V4.54054H6.87568V0.972973ZM1.00541 23.027L2.3027 5.51351H20.2054L21.4378 23.027H1.00541Z" fill="#2C3343"/>
</svg>
