<svg width="20" height="27" viewBox="0 0 20 27" fill="none" xmlns="http://www.w3.org/2000/svg">
<g clip-path="url(#clip0)">
<path d="M17.28 8.15404C17.28 12.366 9.72003 22.14 9.72003 22.14C9.72003 22.14 2.16003 12.366 2.16003 8.15404C2.16003 3.94204 5.56203 0.540039 9.72003 0.540039C13.878 0.540039 17.28 3.94204 17.28 8.15404Z" stroke="#2C3343" stroke-miterlimit="10" stroke-linejoin="round"/>
<path d="M9.72002 10.8541C11.2112 10.8541 12.42 9.64527 12.42 8.1541C12.42 6.66293 11.2112 5.4541 9.72002 5.4541C8.22885 5.4541 7.02002 6.66293 7.02002 8.1541C7.02002 9.64527 8.22885 10.8541 9.72002 10.8541Z" stroke="#2C3343" stroke-miterlimit="10" stroke-linejoin="round"/>
<path d="M14.958 18.5759C17.334 19.3319 18.9 20.6279 18.9 22.1399C18.9 24.5159 14.796 26.4599 9.72004 26.4599C4.64404 26.4599 0.540039 24.5159 0.540039 22.1399C0.540039 20.6819 2.10604 19.3859 4.48204 18.5759" stroke="#2C3343" stroke-miterlimit="10"/>
</g>
<defs>
<clipPath id="clip0">
<rect width="19.44" height="27" fill="white"/>
</clipPath>
</defs>
</svg>
