<?xml version="1.0" encoding="utf-8"?>
<!-- Generator: Adobe Illustrator 23.0.3, SVG Export Plug-In . SVG Version: 6.00 Build 0)  -->
<svg version="1.1" id="Layer_1" xmlns="http://www.w3.org/2000/svg" xmlns:xlink="http://www.w3.org/1999/xlink" x="0px" y="0px"
	 viewBox="0 0 444 335" style="enable-background:new 0 0 444 335;" xml:space="preserve">
<style type="text/css">
	.st0{enable-background:new    ;}
	.st1{fill:#34FF63;}
</style>
<g class="st0">
	<path class="st1" d="M23.6,264.6c-0.6-0.3-1.2-0.6-1.6-0.8c-0.6-0.4-1.2-0.9-1.8-1.3c-0.5-0.4-1-0.9-1.5-1.3
		c-2.8-1.9-5.1-3.9-7-5.8c-1.8-1.9-3.3-4-4.4-6.1c-1.1-1.9-1.9-4.2-2.4-6.8c-0.5-2.6-0.8-5.3-0.8-8.1c0-0.2,0-0.4,0-0.6
		c0-0.2,0-0.4,0-0.6v-0.3c0-0.2,0-0.4,0-0.6c0-1.7,0.2-3.4,0.5-5s0.7-3.2,1.1-4.7c0.4-1.5,1-2.9,1.6-4.2c0.6-1.3,1.4-2.6,2.3-3.9
		c1.7-2.4,3.4-4.5,5-6.3c1.6-1.8,3.4-3.3,5.3-4.4c1.7-1.1,3.7-1.8,5.8-2.3c2.2-0.4,4.5-0.6,7.1-0.6c0.4,0,0.9,0,1.3,0
		c0.4,0,0.9,0,1.3,0c0.4,0.2,0.9,0.3,1.3,0.3c0.4,0,0.9,0,1.3,0c0.9,0.2,1.8,0.4,2.8,0.5c1,0.1,2,0.3,3.1,0.5l14.2,3.6l12.9,3.2
		l9.4,2.3l3.6,1c0.4,0.4,0.9,0.7,1.5,0.8c0.5,0.1,1,0.2,1.5,0.2c0.2,0,0.4,0,0.6,0c0.2,0,0.4,0,0.6,0c0.2,0.2,0.4,0.3,0.6,0.3
		c0.2,0,0.4,0,0.6,0c1.1,0.2,2.2,0.4,3.4,0.5c1.2,0.1,2.2,0.2,3.1,0.2c1.1,0.2,2,0.3,2.8,0.3c0.8,0,1.6,0,2.4,0c0.9,0,1.7,0,2.4-0.2
		c0.8-0.1,1.6-0.3,2.4-0.5c0.6,0,1.3-0.1,1.9-0.2c0.6-0.1,1.3-0.3,1.9-0.5c0.4-0.2,0.9-0.4,1.5-0.5c0.5-0.1,0.9-0.3,1.1-0.5
		c0.2,0,0.4,0,0.6,0c0.2,0,0.4-0.1,0.6-0.3c0.4-0.2,0.8-0.4,1-0.6c0.2,0,0.4,0,0.5,0c0.1,0,0.3-0.1,0.5-0.3c0.2-0.2,0.4-0.3,0.6-0.3
		c0.2-0.2,0.4-0.4,0.6-0.5c0.2-0.1,0.4-0.3,0.6-0.5c0.4-0.4,0.9-0.9,1.3-1.3c0.4-0.4,0.8-0.9,1-1.3c0.2-0.4,0.4-0.9,0.5-1.5
		c0.1-0.5,0.2-1.1,0.2-1.8c-0.2-0.4-0.4-0.9-0.5-1.5c-0.1-0.5-0.3-1-0.5-1.5c-0.2-0.2-0.4-0.4-0.5-0.6c-0.1-0.2-0.3-0.4-0.5-0.6
		c-0.2,0-0.4-0.1-0.6-0.3c-0.2-0.2-0.4-0.4-0.6-0.6c-0.2,0-0.4-0.1-0.6-0.3c-0.2,0-0.4,0-0.6,0c-0.2,0-0.4,0-0.6-0.2
		c-0.2-0.1-0.4-0.3-0.6-0.5l-6.1-2.3l-4.2-1.3l-17.2-4.2l-3.2-0.6l-21.4-6.1c-3.5-0.6-6.6-1.5-9.4-2.4c-2.8-1-5.4-2-7.8-3.1
		c-2.4-1.1-4.6-2.2-6.8-3.2c-2.2-1.1-4.1-2.2-5.8-3.2c-4.5-2.8-8.5-6-11.8-9.7c-3.3-3.7-6.2-7.8-8.6-12.3c-2.4-4.5-4.2-9.2-5.3-14.1
		c-1.2-4.9-1.8-9.9-1.8-15c0-1.1,0-2.1,0-3.1s0.1-1.9,0.3-2.8c0-1.1,0.1-2.2,0.3-3.2c0.2-1.1,0.4-2.2,0.6-3.2c0.4-3,1.2-6,2.3-9.1
		c1.1-3,2.4-6,3.9-9.1c1.5-3,3.2-5.9,5.2-8.7c1.9-2.8,4.1-5.6,6.5-8.4c3.4-3.7,7.4-7.1,11.8-10.4c4.4-3.2,9.3-6.1,14.7-8.7
		c5.6-2.6,11.5-4.8,17.8-6.6c6.3-1.8,12.9-3.2,20.1-4c0.4,0,0.8,0,1.1,0s0.7-0.1,1.1-0.3c0.2,0,0.5,0,1,0c0.4,0,0.8,0,1,0
		c0.4,0,0.8,0,1.1,0c0.3,0,0.7-0.1,1.1-0.3c0.2,0,0.5,0,1,0c0.4,0,0.9,0,1.3,0c0.4,0,0.8,0,1.1,0c0.3,0,0.6-0.1,0.8-0.3
		c0.4,0,0.8,0,1.1,0c0.3,0,0.6,0,0.8,0c0.6,0,1.3,0,2.1,0c0.8,0,1.6,0,2.4,0c3,0,6,0.1,8.9,0.3c2.9,0.2,5.8,0.5,8.6,1
		c3,0.2,5.9,0.6,8.6,1.3c2.7,0.6,5.4,1.4,8.3,2.3c6.3,1.9,11.7,3.9,16.3,6c4.6,2.1,8.4,4.3,11.2,6.6c3,2.2,5.5,4.6,7.4,7.4
		c1.9,2.8,3.3,5.8,4.2,9.1c0.4,0.9,0.7,1.8,0.8,2.8c0.1,1,0.3,2,0.5,3.1c0,0.4,0,0.9,0,1.5c0,0.5,0.1,1,0.3,1.5c0,0.4,0,0.9,0,1.3
		c0,0.4,0,0.9,0,1.3c0,1.5-0.1,3.1-0.3,4.7c-0.2,1.6-0.5,3.2-1,4.7c-0.4,1.5-1,2.9-1.6,4.2c-0.6,1.3-1.4,2.5-2.3,3.6
		c-1.5,2.4-3.2,4.4-5.2,6.1c-1.9,1.7-3.9,3.1-5.8,4.2c-1.9,1.1-4.1,1.9-6.5,2.4c-2.4,0.5-5,0.8-7.8,0.8c-1.5,0-3-0.1-4.5-0.2
		c-1.5-0.1-3.1-0.3-4.9-0.5c-1.5-0.4-3.2-0.8-5-1.1c-1.8-0.3-3.7-0.8-5.7-1.5l-2.6-1.3l-9.4-2.9l-3.9-1l-9.1-2.3l-4.5-1l-3.2-0.6
		c-0.2,0.2-0.4,0.3-0.5,0.3c-0.1,0-0.3,0-0.5,0c-0.2,0-0.4,0-0.6,0c-0.2,0-0.3-0.1-0.3-0.3c-0.2,0-0.4,0-0.6,0c-0.2,0-0.4,0-0.6,0
		c-0.2,0-0.4,0-0.5,0c-0.1,0-0.3,0-0.5,0c-0.2,0-0.4,0-0.6,0c-0.2,0-0.4,0-0.6,0c-0.2,0-0.4,0-0.6,0c-0.2,0-0.4,0-0.6,0
		c-1.3,0-2.4,0.1-3.4,0.2c-1,0.1-1.8,0.3-2.4,0.5c-0.9,0.2-1.6,0.5-2.3,0.8c-0.6,0.3-1.2,0.7-1.6,1.1c-0.4,0.4-0.8,0.9-1.1,1.5
		c-0.3,0.5-0.7,1-1.1,1.5c-0.2,0.4-0.4,0.9-0.5,1.3c-0.1,0.4-0.2,0.9-0.2,1.3c0,0.4,0.1,0.8,0.2,1.1c0.1,0.3,0.3,0.7,0.5,1.1
		c0.2,0.2,0.4,0.4,0.6,0.6c0.2,0.2,0.4,0.4,0.6,0.6c0.4,0.2,0.8,0.4,1.1,0.6c0.3,0.2,0.7,0.4,1.1,0.6c0.4,0.2,0.9,0.4,1.3,0.5
		c0.4,0.1,1,0.3,1.6,0.5l15.9,3.9l9.7,2.3l2.6,0.6l18.8,5.2c2.8,1.1,5.5,2,8.1,2.8c2.6,0.8,5,1.7,7.1,2.8c1.1,0.4,2.2,0.9,3.4,1.3
		c1.2,0.4,2.3,0.9,3.4,1.3c1.1,0.6,2.2,1.2,3.2,1.6c1.1,0.4,2,0.9,2.9,1.3c5.8,3,10.9,6.6,15.4,10.7c4.4,4.1,8.1,8.7,11.2,13.9
		c3,5.2,5.3,10.5,7,15.9c1.6,5.4,2.4,11,2.4,16.8c0,0.4,0,0.9,0,1.5c0,0.5,0,1,0,1.5c-0.2,0.6-0.3,1.2-0.3,1.8c0,0.5,0,1,0,1.5
		c-0.2,0.9-0.4,1.8-0.5,2.8c-0.1,1-0.2,2-0.2,3.1c-0.6,3-1.5,6-2.6,9.1c-1.1,3-2.3,6-3.6,9.1c-1.5,2.8-3.1,5.7-4.9,8.6
		c-1.7,2.9-3.8,5.7-6.1,8.3c-4.5,5.4-9.6,10.1-15.2,14.1c-5.6,4-11.9,7.5-18.8,10.5c-6.7,2.8-14,4.9-22,6.1
		c-8,1.3-16.7,1.9-26.2,1.9c-0.6,0-1.2,0-1.8,0c-0.5,0-1,0-1.5,0c-0.6-0.2-1.2-0.3-1.8-0.3c-0.5,0-1.1,0-1.8,0c-0.6,0-1.3,0-1.9,0
		c-0.6,0-1.2,0-1.6,0c-0.6-0.2-1.2-0.3-1.8-0.3c-0.5,0-1.1,0-1.8,0c-7.1-0.4-13.6-1-19.4-1.6c-5.8-0.6-11.1-1.6-15.9-2.9
		c-4.7-1.1-8.9-2.3-12.5-3.7c-3.6-1.4-6.6-2.9-9.2-4.4v-0.3C24.9,265.2,24.3,264.9,23.6,264.6z"/>
	<path class="st1" d="M215.9,263.1c-1.3-2.2-2.5-4.3-3.6-6.5c-0.9-2.4-1.6-4.7-2.1-7.1c-0.5-2.4-0.8-4.7-0.8-7.1V78.3
		c0-2.2,0.3-4.5,0.8-7c0.5-2.5,1.2-4.8,2.1-7c1.1-2.4,2.3-4.6,3.6-6.6c1.3-2,2.8-3.9,4.5-5.7c1.7-1.7,3.7-3.3,5.8-4.7
		c2.2-1.4,4.3-2.5,6.5-3.4c2.4-1.1,4.7-1.8,7.1-2.3c2.4-0.4,4.7-0.6,7.1-0.6c2.4,0.2,4.8,0.5,7.3,1c2.5,0.4,4.8,1.2,7,2.3
		c2.4,0.9,4.6,2,6.6,3.4c2,1.4,3.9,3,5.7,4.7c1.7,1.7,3.3,3.6,4.7,5.7c1.4,2.1,2.5,4.3,3.4,6.6c1.1,2.2,1.8,4.5,2.3,7
		c0.4,2.5,0.6,4.9,0.6,7.3v46.6h73.5V78.6c0-2.2,0.3-4.5,0.8-7c0.5-2.5,1.2-4.8,2.1-7c1.1-2.4,2.3-4.6,3.6-6.6
		c1.3-2,2.8-3.9,4.5-5.7c1.7-1.7,3.7-3.3,5.8-4.9c2.2-1.5,4.4-2.7,6.8-3.6c2.4-1.1,4.7-1.8,7.1-2.3c2.4-0.4,4.7-0.6,7.1-0.6
		c0.2,0,0.4,0,0.6,0c0.2,0,0.4,0,0.6,0c0.4,0,0.8,0,1.1,0c0.3,0,0.6,0,0.8,0c1.1,0.2,2.1,0.4,3.1,0.6c1,0.2,2,0.4,3.1,0.6
		c0.9,0.2,1.8,0.5,2.9,1c1.1,0.4,2,0.9,2.9,1.3c1.9,0.9,3.9,1.9,5.8,3.1c1.9,1.2,3.7,2.6,5.2,4.4c1.7,1.7,3.3,3.6,4.7,5.7
		c1.4,2.1,2.5,4.3,3.4,6.6c1.1,2.2,1.8,4.5,2.3,7c0.4,2.5,0.6,4.9,0.6,7.3v163.4c0,2.6-0.2,5.1-0.6,7.4c-0.4,2.4-1.2,4.7-2.3,7.1
		c-0.9,2.2-2,4.3-3.4,6.5c-1.4,2.2-3,4.1-4.7,5.8c-1.7,1.9-3.6,3.6-5.7,4.9c-2.1,1.3-4.3,2.3-6.6,2.9c-2.2,0.9-4.5,1.5-7,1.9
		c-2.5,0.4-4.9,0.6-7.3,0.6c-0.2,0-0.4,0-0.6,0c-0.2,0-0.4,0-0.5,0c-0.1,0-0.3,0-0.5,0c-0.2,0-0.4,0-0.6,0c-0.2,0-0.4,0-0.5,0
		c-0.1,0-0.3,0-0.5,0c-2.2-0.2-4.3-0.6-6.3-1.1c-2.1-0.5-4-1.1-6-1.8c-1.9-0.9-3.8-1.9-5.5-3.2c-1.7-1.3-3.5-2.7-5.2-4.2
		c-1.7-1.7-3.2-3.6-4.5-5.7c-1.3-2-2.5-4.2-3.6-6.3c-0.9-2.4-1.6-4.7-2.1-7.1c-0.5-2.4-0.8-4.9-0.8-7.4v-52.1h-74.1v51.8
		c0,2.8-0.2,5.4-0.6,7.8c-0.4,2.4-1.2,4.7-2.3,7.1c-0.9,2.2-2,4.3-3.4,6.3c-1.4,2.1-3,3.9-4.7,5.7c-1.5,1.5-3.2,2.9-5.2,4.2
		c-1.9,1.3-3.9,2.4-5.8,3.2c-0.9,0.2-1.8,0.5-2.9,0.8c-1.1,0.3-2.1,0.6-2.9,0.8c-1.1,0.2-2.1,0.4-3.1,0.6c-1,0.2-2,0.4-3.1,0.6
		c-0.2,0-0.5,0-0.8,0c-0.3,0-0.7,0-1.1,0c-0.2,0-0.4,0-0.6,0c-0.2,0-0.4,0-0.6,0c-2.4,0-4.7-0.2-7.1-0.6c-2.4-0.4-4.7-1.1-7.1-1.9
		c-2.2-0.6-4.3-1.6-6.5-2.9c-2.2-1.3-4.1-2.9-5.8-4.9v-0.3C218.7,267.1,217.2,265.3,215.9,263.1z"/>
</g>
</svg>
