<svg width="182" height="16" viewBox="0 0 182 16" fill="none" xmlns="http://www.w3.org/2000/svg">
<g clip-path="url(#clip0_270_317)">
<path d="M32.3037 7.99997C32.3037 11.8282 29.336 14.8221 25.6386 14.8221C23.8142 14.8221 22.1844 14.0613 20.9439 12.8343C20.433 12.2944 19.9952 12.1963 19.533 12.2699C19.0222 12.3435 18.633 12.6871 18.2924 13.2024C17.514 14.2822 16.5654 14.8221 15.4464 14.8221C13.1842 14.8221 11.5057 12.0245 11.5057 7.97543C11.5057 4.17175 13.1112 1.17788 15.4464 1.17788C16.5654 1.17788 17.514 1.69322 18.2924 2.82206C18.6816 3.38647 19.0465 3.68095 19.533 3.73003C20.0438 3.77911 20.4574 3.68095 20.9439 3.19015C22.1601 1.93862 23.8142 1.17788 25.6629 1.17788C25.6629 1.17788 27.2197 1.1288 28.8495 1.9877C30.6252 2.94476 32.328 5.07973 32.328 7.97543L32.3037 7.99997Z" fill="#090E83"/>
<path d="M4.35418 1.22693C6.78669 1.22693 8.29484 4.29441 8.29484 7.99993C8.29484 11.7055 6.78669 14.7729 4.35418 14.7729C1.92168 14.7729 0 11.6809 0 7.99993C0 4.26987 1.946 1.22693 4.35418 1.22693Z" fill="#090E83"/>
<path d="M51.715 16C49.4771 16 47.8717 15.2883 47.2879 14.9939C46.85 14.773 46.5581 14.3067 46.5581 13.816V12.0982H47.6771L47.7744 12.319C48.6744 14.5767 50.7907 14.5767 51.6907 14.5521C53.6854 14.5521 54.9746 13.5706 54.9746 12.0245C54.9746 10.8466 54.1962 10.135 52.1286 9.32515L51.0339 8.90798C48.9906 8.14724 46.8257 7.09202 46.8257 4.39264C46.8257 1.69325 48.869 0 51.9096 0C53.3935 0 54.7557 0.319018 55.9963 0.932515C56.4341 1.15337 56.726 1.61963 56.726 2.11043V3.95092H55.6071L55.5098 3.73006C54.78 1.81595 53.1259 1.42331 51.861 1.42331C50.3528 1.42331 49.3798 2.33129 49.3798 3.70552C49.3798 4.8589 50.1096 5.54601 52.1772 6.33129L53.2962 6.74847C55.9233 7.7546 57.5531 8.8589 57.5531 11.362C57.5531 14.1595 55.2665 15.9755 51.7394 15.9755L51.715 16Z" fill="black"/>
<path d="M75.213 15.7546H63.5613V14.6257H63.9262C64.7046 14.6257 64.7533 14.3558 64.7533 13.4969V2.50303C64.7533 2.03677 64.7046 1.74229 64.656 1.61959C64.583 1.49689 64.4857 1.3742 63.9505 1.3742H63.5857V0.245361H68.7669V1.3742H68.402C67.8426 1.3742 67.7696 1.49689 67.6966 1.61959C67.5993 1.81591 67.5993 2.13493 67.5993 2.47849V13.7423C67.5993 14.0368 67.8182 14.2822 68.1101 14.2822C68.2318 14.2822 69.2534 14.2822 69.6426 14.2822C72.0021 14.3067 74.2644 14.3803 74.6292 13.3006L74.8238 12.5644H75.9914L75.6266 15.3374C75.6266 15.5582 75.4076 15.73 75.1887 15.73L75.213 15.7546Z" fill="black"/>
<path d="M87.2539 16C82.5349 16 79.4699 12.908 79.4699 8.09816C79.4699 3.28834 82.6565 0 87.4242 0C92.1919 0 95.1839 3.09202 95.1839 7.90184C95.1839 12.7117 91.9973 16 87.2539 16ZM87.181 1.42331C84.2863 1.42331 82.5592 3.82822 82.5592 7.82822C82.5592 11.8282 84.4322 14.5767 87.4485 14.5767C90.4648 14.5767 92.0946 12.1718 92.0946 8.17178C92.0946 4.17178 90.2216 1.42331 87.181 1.42331Z" fill="black"/>
<path d="M107.809 16C103.771 16 101.727 14.1595 101.727 10.503C101.727 10.503 101.727 4.46622 101.727 3.16561C101.727 2.52757 101.752 1.84045 101.484 1.57051C101.362 1.44782 101.168 1.39874 100.9 1.39874H100.535V0.245361H105.717V1.3742H105.352C105.084 1.3742 104.89 1.42328 104.768 1.57051C104.5 1.86499 104.525 2.52757 104.525 3.19015C104.525 4.46622 104.525 10.3067 104.525 10.3067C104.525 13.1043 105.668 14.3558 108.246 14.3558C110.825 14.3558 111.968 12.9816 111.968 10.3067V2.84659C111.968 1.54597 111.53 1.3742 111.092 1.3742H110.728V0.245361H114.984V1.3742H114.62C114.182 1.3742 113.768 1.54597 113.768 2.84659V10.3067C113.768 13.9632 111.628 15.9754 107.736 15.9754L107.809 16Z" fill="black"/>
<path d="M133.593 15.7546H127.147V14.6257H127.512C128.096 14.6257 128.315 14.3067 128.315 13.4969V2.50303C128.315 1.69321 128.242 1.3742 127.512 1.3742H127.147V0.245361H133.739C138.385 0.245361 139.358 2.30671 139.358 4.04904C139.358 5.52143 138.507 6.72389 137.023 7.46008C139.139 8.04904 140.38 9.42328 140.38 11.3128C140.38 14.0859 137.85 15.7546 133.593 15.7546ZM131.161 7.04291H133.253C135.199 7.04291 136.415 5.98769 136.415 4.2699C136.415 2.13493 134.542 1.66867 132.961 1.66867H131.185V7.04291H131.161ZM131.161 14.184C131.647 14.2576 132.45 14.2822 133.009 14.2822C136.853 14.2822 137.291 12.6871 137.291 11.4846C137.291 9.57051 135.977 8.46622 133.666 8.46622H131.161V14.1595V14.184Z" fill="black"/>
<path d="M159.694 15.7546H147.507V14.6257H147.872C148.626 14.6257 148.723 14.2576 148.723 13.4969V2.50303C148.723 1.79137 148.675 1.3742 147.896 1.3742H147.531V0.245361H159.548V3.48462H158.429C158.429 3.48462 158.088 2.69935 158.04 2.60119C157.651 1.74229 157.651 1.69321 154.999 1.69321H151.545V7.04291C151.545 7.04291 154.051 7.04291 154.415 7.04291C155.753 6.99383 156.264 6.96929 156.41 6.45395L156.58 5.88953H157.699V9.66867H156.556L156.41 9.10426C156.264 8.56438 155.656 8.53984 154.415 8.5153C154.075 8.5153 151.545 8.5153 151.545 8.5153V14.184C152.08 14.2822 152.713 14.3067 153.88 14.3067C158.064 14.3067 158.088 14.2086 158.672 12.7607L158.891 12.0981H160.059L159.67 15.7546H159.694Z" fill="black"/>
<path d="M173.17 15.7546H167.21V14.6257H167.575C168.11 14.6257 168.402 14.2576 168.402 13.4969V2.50303C168.402 2.30671 168.402 1.96315 168.305 1.74229C168.232 1.57051 168.062 1.3742 167.575 1.3742H167.21V0.245361H173.511C178.813 0.245361 181.976 3.09199 181.976 7.82818C181.976 12.5644 178.667 15.7546 173.146 15.7546H173.17ZM171.224 14.184C171.735 14.2576 172.44 14.3067 173.413 14.3067C177.111 14.3067 178.886 12.2454 178.886 8.0245C178.886 3.80364 176.819 1.69321 173.073 1.69321H171.224V14.184Z" fill="black"/>
</g>
<defs>
<clipPath id="clip0_270_317">
<rect width="182" height="16" fill="white"/>
</clipPath>
</defs>
</svg>
